<?xml version="1.0" encoding="UTF-8" standalone="no"?>
<svg
   xmlns:dc="http://purl.org/dc/elements/1.1/"
   xmlns:cc="http://creativecommons.org/ns#"
   xmlns:rdf="http://www.w3.org/1999/02/22-rdf-syntax-ns#"
   xmlns:svg="http://www.w3.org/2000/svg"
   xmlns="http://www.w3.org/2000/svg"
   version="1.0"
   width="113.51"
   height="178.13"
   id="svg2379">
  <metadata
     id="metadata3574">
    <rdf:RDF>
      <cc:Work
         rdf:about="">
        <dc:format>image/svg+xml</dc:format>
        <dc:type
           rdf:resource="http://purl.org/dc/dcmitype/StillImage" />
        <dc:title></dc:title>
      </cc:Work>
    </rdf:RDF>
  </metadata>
  <defs
     id="defs2381" />
  <g
     transform="translate(1.2348545,0.5061134)"
     id="g3077"
     style="opacity:1">
    <path
       style="font-size:21.60733986000000000px;font-style:normal;font-weight:normal;fill:#000000;fill-opacity:1;stroke:none;font-family:Bitstream Vera Sans"
       d="m 41.140697,14.240355 0,-1.40322 5.33853,0 1.26606,-2.9752198 -6.60459,0 0,-1.40322 7.20596,0 1.44541,-3.38669 1.27661,0 -1.44541,3.38669 4.51559,0 0,1.40322 -5.11697,0 -1.26605,2.9752198 6.38302,0 0,1.40322 -6.9844,0 -1.58257,3.71376 -1.2766,0 1.58256,-3.71376 -4.73715,0 z"
       id="path3661-1" />
    <path
       d="m 63.88915,17.189798 0,-0.51697 c 0.98471,0 1.83754,-0.21804 2.558486,-0.65413 0.72094,-0.43608 1.30122,-1.08142 1.74083,-1.93601 0.43959,-0.85458 0.73324,-1.97469 0.88096,-3.36032 l -0.10551,-0.0422 c -0.59083,0.42202 -1.17286,0.7315 -1.7461,0.92844 -0.57324,0.19695 -1.19396,0.29542 -1.862146,0.29541 -0.79481,10e-6 -1.4718,-0.17408 -2.03097,-0.52225 -0.55917,-0.34816 -0.97943,-0.83699 -1.26078,-1.4665102 -0.28134,-0.629499 -0.42202,-1.366279 -0.42201,-2.210319 -1e-5,-0.63302 0.1055,-1.23264 0.31651,-1.79886 0.21101,-0.56619 0.524,-1.06206 0.93899,-1.48761 0.41498,-0.42552 0.93371,-0.76314 1.55619,-1.01284 0.62248,-0.24968 1.3487,-0.37453 2.178666,-0.37455 1.47706,2e-5 2.60244,0.50996 3.37615,1.52982 0.77369,1.01989 1.16054,2.4864 1.16055,4.39954 -1e-5,1.7513892 -0.28487,3.2688892 -0.85459,4.5525292 -0.56973,1.28364 -1.36805,2.28241 -2.39495,2.99633 -1.02692,0.71391 -2.226146,1.13417 -3.597706,1.26078 z m 2.194496,-6.39358 c 0.26727,10e-6 0.52224,-0.02285 0.76491,-0.06858 0.24265,-0.04571 0.48004,-0.11253 0.71215,-0.20045 0.23211,-0.08792 0.45894,-0.20046 0.68051,-0.33762 0.22155,-0.13715 0.42025,-0.2831002 0.5961,-0.4378402 0.06329,-0.05626 0.11956,-0.13012 0.16881,-0.22156 0.04922,-0.091429 0.08791,-0.210999 0.11605,-0.358719 0.02813,-0.1477 0.04219,-0.37981 0.0422,-0.69633 -1e-5,-0.9636 -0.09672,-1.78829 -0.29014,-2.47408 -0.19343,-0.68577 -0.48884,-1.20274 -0.88623,-1.55092 -0.39741,-0.34815 -0.88801,-0.52223 -1.47179,-0.52225 -0.52753,2e-5 -0.974166,0.09145 -1.339906,0.27432 -0.36575,0.18288 -0.66293,0.43434 -0.89151,0.75435 -0.2286,0.32005 -0.39565,0.69635 -0.50115,1.1289 -0.10551,0.43258 -0.15826,0.90208 -0.15826,1.40849 0,1.04802 0.21452,1.8604 0.64358,2.437149 0.42905,0.5767702 1.03394,0.8651502 1.814676,0.8651402 z m 12.354594,6.97386 c -1.51927,0 -2.64993,-0.59786 -3.39198,-1.79358 -0.74205,-1.19572 -1.11307,-3.0104 -1.11307,-5.44404 0,-1.2941792 0.11429,-2.4125292 0.34289,-3.3550392 0.22859,-0.9425 0.54862,-1.72148 0.96009,-2.33693 0.41147,-0.61543 0.90558,-1.07086 1.48234,-1.36629 0.57675,-0.29539 1.20626,-0.4431 1.88853,-0.44312 1.54036,2e-5 2.68684,0.59436 3.43945,1.78303 0.75259,1.1887 1.12889,2.98579 1.1289,5.3912892 -10e-6,2.48991 -0.40268,4.37317 -1.20803,5.64977 -0.80536,1.2766 -1.98173,1.91491 -3.52912,1.91491 z m -2.44771,-7.55413 c 0,2.29297 0.21276,3.97577 0.6383,5.04839 0.42553,1.07263 1.08494,1.60895 1.97821,1.60895 0.85107,0 1.48233,-0.50467 1.89381,-1.51399 0.41146,-1.00933 0.61719,-2.57255 0.6172,-4.68968 -1e-5,-1.6177292 -0.10551,-2.9277492 -0.31651,-3.9300492 -0.21102,-1.00228 -0.50467,-1.72147 -0.88096,-2.15757 -0.37631,-0.43607 -0.83174,-0.65411 -1.36629,-0.65413 -0.48533,2e-5 -0.89152,0.14421 -1.21858,0.43257 -0.32707,0.28839 -0.59083,0.70338 -0.79128,1.24496 -0.20046,0.5416 -0.3429,1.201 -0.4273,1.97821 -0.0844,0.77722 -0.1266,1.65467 -0.1266,2.6323392 z M 88.52447,9.3402588 c -0.61193,10e-6 -1.15176,-0.13715 -1.61949,-0.41147 -0.46774,-0.2743 -0.82821,-0.65236 -1.08142,-1.13417 -0.25322,-0.4818 -0.37982,-1.02515 -0.37982,-1.63005 0,-0.59785 0.1354,-1.13768 0.40619,-1.61949 0.2708,-0.4818 0.64885,-0.85458 1.13418,-1.11835 0.48532,-0.26375 1.03394,-0.39563 1.64587,-0.39565 0.60489,2e-5 1.14472,0.13366 1.61949,0.40092 0.47477,0.26729 0.84403,0.64008 1.1078,1.11835 0.26376,0.4783 0.39564,1.01989 0.39564,1.62477 0,0.59787 -0.13892,1.1377 -0.41674,1.6195 -0.27783,0.48181 -0.66293,0.85987 -1.15527,1.13417 -0.49236,0.27432 -1.0445,0.41148 -1.65643,0.41147 z m 0.06331,-5.26468 c -0.39389,1e-5 -0.74557,0.08969 -1.05505,0.26904 -0.30948,0.17937 -0.54863,0.4273 -0.71743,0.7438 -0.16881,0.31653 -0.25321,0.67876 -0.25321,1.0867 0,0.40796 0.08264,0.77195 0.24793,1.09197 0.16529,0.32004 0.40444,0.56974 0.71744,0.74909 0.31299,0.17936 0.66643,0.26904 1.06032,0.26903 0.40091,1e-5 0.75787,-0.08967 1.07087,-0.26903 0.31299,-0.17935 0.55389,-0.42905 0.7227,-0.74909 0.16881,-0.32002 0.25321,-0.68401 0.25322,-1.09197 -1e-5,-0.40794 -0.08441,-0.77017 -0.25322,-1.0867 -0.16881,-0.3165 -0.40971,-0.56443 -0.7227,-0.7438 -0.313,-0.17935 -0.66996,-0.26903 -1.07087,-0.26904 z"
       style="font-size:21.60733986000000000px;font-style:normal;font-weight:normal;fill:#000000;fill-opacity:1;stroke:none;font-family:Bitstream Vera Sans"
       id="path3612-7" />
    <path
       d="m 27.25276,9.7648646 c 1.673955,0.5908304 2.510933,1.6915904 2.510943,3.3022904 -10e-6,0.82997 -0.184635,1.60719 -0.553886,2.33165 -0.36926,0.72447 -0.910835,1.29947 -1.624726,1.725 -0.713901,0.42554 -1.535059,0.63831 -2.463465,0.63831 -0.597854,0 -1.123599,-0.04748 -1.577246,-0.14244 -0.453668,-0.09495 -0.923146,-0.25848 -1.408453,-0.49059 l -1.12887,5.00092 -1.719674,0 3.122847,-13.9477104 c 0.281332,-1.25198 0.661142,-2.28944 1.139419,-3.11239 0.478268,-0.82292 1.076111,-1.4577 1.793532,-1.90435 0.7174,-0.44663 1.561418,-0.66994 2.532042,-0.66996 1.083141,2e-5 1.920119,0.24092 2.510943,0.72271 0.590794,0.48182 0.886197,1.16584 0.886216,2.05206 -1.9e-5,0.35873 -0.05101,0.74734 -0.152985,1.16583 -0.101988,0.41851 -0.304202,0.82998 -0.606634,1.2344 -0.302442,0.40445 -0.722691,0.77899 -1.260747,1.12363 -0.538065,0.34465 -1.197448,0.64007 -1.978157,0.88623 z m -1.761873,-0.46422 c 0.759599,-0.05626 1.445361,-0.27431 2.057275,-0.65413 0.611903,-0.37981 1.091941,-0.87744 1.440101,-1.49289 0.348151,-0.61543 0.522226,-1.2889 0.522236,-2.02041 -10e-6,-0.58378 -0.145956,-1.03042 -0.437828,-1.33991 -0.291902,-0.30947 -0.72622,-0.46421 -1.302955,-0.46422 -0.893256,1e-5 -1.638796,0.43082 -2.23663,1.29243 -0.597855,0.86163 -1.086682,2.16813 -1.46648,3.91949 l -1.424272,6.6151404 c -0.03517,0.16178 -0.05275,0.29893 -0.05275,0.41147 0,0.18991 0.04396,0.35168 0.131876,0.48532 0.08792,0.13364 0.218035,0.26552 0.39036,0.39564 0.172315,0.13013 0.39562,0.24267 0.669932,0.33762 0.274303,0.09495 0.622453,0.14243 1.044471,0.14243 0.569695,0 1.088421,-0.17584 1.556149,-0.52752 0.467717,-0.35168 0.835218,-0.85107 1.10249,-1.49817 0.267263,-0.64709 0.4009,-1.38562 0.40091,-2.21559 -10e-6,-0.7948 -0.219804,-1.41728 -0.659383,-1.86744 -0.439598,-0.45014 -1.067341,-0.70687 -1.883209,-0.77018 z"
       style="font-size:21.60733986000000000px;font-style:normal;font-weight:normal;fill:#000000;fill-opacity:1;stroke:none;font-family:Bitstream Vera Sans"
       id="path3648-1" />
  </g>
  <g
     id="g4206">
    <path
       id="path3625"
       style="fill:#000000;fill-rule:evenodd;stroke:none;stroke-width:0.7pt;marker-start:none;marker-end:none"
       d="m 25.639398,163.00032 c -1.03411,1.63194 -3.19786,2.11714 -4.82981,1.08303 -1.63194,-1.03411 -2.11714,-3.19786 -1.08303,-4.82981 1.03411,-1.63194 3.19787,-2.11714 4.82981,-1.08303 1.63194,1.03411 2.11714,3.19787 1.08303,4.82981 z" />
    <path
       id="path3635"
       style="fill:#c0c0c0;fill-opacity:1;fill-rule:evenodd;stroke:none;stroke-width:0.7pt;marker-start:none;marker-end:none"
       d="m 82.050927,124.57333 c 1.22237,1.49614 1.00016,3.70247 -0.49599,4.92483 -1.49614,1.22236 -3.70247,1.00016 -4.92483,-0.49599 -1.22236,-1.49615 -1.00016,-3.70247 0.49599,-4.92483 1.49615,-1.22236 3.70247,-1.00016 4.92483,0.49599 z" />
    <path
       id="path3637"
       style="fill:#c0c0c0;fill-opacity:1;fill-rule:evenodd;stroke:none;stroke-width:1.75;stroke-linecap:butt;stroke-linejoin:miter;stroke-miterlimit:4;stroke-dasharray:none;stroke-opacity:1"
       d="m 95.93377,161.10187 0.03125,-0.28125 -0.125,-0.28125 -16.218753,-34.375 -0.25,-0.5 -0.53125,0 -71.8727779,0 -0.71875,0 -0.15625,0.71875 1.59375,1.03125 70.5915279,0 15.875,33.625 1.781253,0.0625 z" />
    <path
       id="path3639"
       style="fill:none;fill-rule:evenodd;stroke:#c0c0c0;stroke-width:1.75;stroke-linecap:butt;stroke-linejoin:miter;stroke-miterlimit:4;stroke-dasharray:none;stroke-opacity:1"
       d="M 90.576327,42.517201 79.579247,126.07157" />
    <path
       id="text3659"
       style="font-style:normal;font-weight:normal;font-size:21.60733986px;font-family:'Bitstream Vera Sans';fill:#008000;fill-opacity:1;stroke:none;stroke-width:1px;stroke-linecap:butt;stroke-linejoin:miter;stroke-opacity:1"
       d="m 94.560358,125.19473 c 1.674002,0.59083 2.511002,1.69159 2.511012,3.30229 -1e-5,0.82997 -0.18464,1.60719 -0.5539,2.33165 -0.36927,0.72447 -0.91086,1.29947 -1.62477,1.725 -0.713922,0.42554 -1.535102,0.6383 -2.463532,0.6383 -0.59787,0 -1.12363,-0.0475 -1.5773,-0.14243 -0.45367,-0.095 -0.92316,-0.25848 -1.40848,-0.49059 l -1.1289,5.00091 -1.71973,0 3.12294,-13.9477 c 0.28134,-1.25198 0.66116,-2.28944 1.13945,-3.11239 0.47828,-0.82292 1.07614,-1.45771 1.79358,-1.90436 0.71742,-0.44662 1.56146,-0.66993 2.532112,-0.66995 1.08317,2e-5 1.92017,0.24092 2.51101,0.72271 0.59081,0.48181 0.88622,1.16584 0.88624,2.05206 -2e-5,0.35873 -0.05101,0.74734 -0.15299,1.16583 -0.102,0.41851 -0.30421,0.82998 -0.60665,1.2344 -0.30245,0.40444 -0.72271,0.77899 -1.26078,1.12362 -0.53808,0.34466 -1.19748,0.64007 -1.978212,0.88624 l -0.0211,0.0844 z m -1.76193,-0.46422 c 0.75963,-0.0563 1.44541,-0.27431 2.057342,-0.65413 0.61192,-0.37981 1.09197,-0.87744 1.44014,-1.49289 0.34816,-0.61543 0.52224,-1.2889 0.52225,-2.02042 -1e-5,-0.58377 -0.14596,-1.03041 -0.43784,-1.3399 -0.29191,-0.30947 -0.72624,-0.46421 -1.30299,-0.46422 -0.893282,1e-5 -1.638842,0.43082 -2.236692,1.29243 -0.59787,0.86163 -1.08671,2.16813 -1.46652,3.91949 l -1.42431,6.61514 c -0.03517,0.16178 -0.05276,0.29893 -0.05275,0.41147 -1e-5,0.18991 0.04395,0.35168 0.13188,0.48532 0.08792,0.13364 0.21804,0.26552 0.39037,0.39564 0.17232,0.13013 0.39563,0.24266 0.66995,0.33762 0.27431,0.095 0.62247,0.14243 1.0445,0.14243 0.56971,0 1.08844,-0.17584 1.55619,-0.52752 0.46773,-0.35169 0.83523,-0.85107 1.102522,-1.49817 0.26727,-0.64709 0.40091,-1.38562 0.40092,-2.2156 -10e-6,-0.79479 -0.21981,-1.41727 -0.659412,-1.86743 -0.43961,-0.45014 -1.06736,-0.70687 -1.88325,-0.77018 l 0.1477,-0.74908 z" />
    <path
       id="path3683"
       style="fill:none;fill-rule:evenodd;stroke:#008000;stroke-width:1px;stroke-linecap:butt;stroke-linejoin:miter;stroke-opacity:1"
       d="m 87.695948,143.73735 c 1.51194,-2.54642 7.320962,-4.37666 10.265262,-3.34218" />
    <path
       id="path3385"
       d="m 25.576438,146.75197 16.168975,0 -2.515174,13.6538"
       style="fill:none;fill-rule:evenodd;stroke:#008000;stroke-width:1px;stroke-linecap:butt;stroke-linejoin:miter;stroke-opacity:1" />
    <path
       id="path3601"
       style="fill:none;fill-rule:evenodd;stroke:#000000;stroke-width:1.75;stroke-linecap:butt;stroke-linejoin:miter;stroke-miterlimit:4;stroke-dasharray:none;stroke-opacity:1"
       d="M 35.057753,79.042391 22.742108,162.59676" />
    <path
       id="path3623"
       style="fill:#000000;fill-rule:evenodd;stroke:none;stroke-width:0.7pt;marker-start:none;marker-end:none"
       d="m 6.9219491,130.19276 c -1.91792,0.23278 -3.6634203,-1.13487 -3.8962103,-3.05279 -0.23278,-1.91793 1.13487,-3.66343 3.0528003,-3.89621 1.91792,-0.23278 3.66343,1.13487 3.89621,3.05279 0.2327789,1.91793 -1.13487,3.66343 -3.0528,3.89621 z" />
    <path
       id="path3599"
       style="fill:#000000;fill-opacity:1;fill-rule:evenodd;stroke:none;stroke-width:1.75;stroke-linecap:butt;stroke-linejoin:miter;stroke-miterlimit:4;stroke-dasharray:none;stroke-opacity:1"
       d="m 17.52216,44.019811 -11.8840009,82.593749 -0.03125,0.28125 0.125,0.28125 16.2187489,34.375 0.25,0.5 0.53125,0 71.872779,0 0.718753,0 0.15625,-0.71875 11.88399,-82.124999 -1.71875,-0.34375 -11.758993,81.437499 -70.591529,0 -15.8749989,-33.625 11.8215009,-82.312499 -1.71875,-0.34375 z" />
    <path
       id="path3627"
       style="fill:#000000;fill-rule:evenodd;stroke:none;stroke-width:0.7pt;marker-start:none;marker-end:none"
       d="m 97.27523,158.99427 c 1.22237,1.49614 1.00016,3.70247 -0.49599,4.92483 -1.49614,1.22236 -3.702473,1.00016 -4.924833,-0.49599 -1.22236,-1.49615 -1.00016,-3.70247 0.49599,-4.92483 1.49615,-1.22236 3.702473,-1.00016 4.924833,0.49599 z" />
    <path
       id="path3387"
       d="m 30.433797,68.6325 13.465759,0 4.014611,9.749768"
       style="fill:none;fill-rule:evenodd;stroke:#008000;stroke-width:1px;stroke-linecap:butt;stroke-linejoin:miter;stroke-opacity:1" />
    <path
       id="path2430"
       style="fill:#000000;fill-opacity:1;fill-rule:evenodd;stroke:none;stroke-width:1.75;stroke-linecap:butt;stroke-linejoin:miter;stroke-miterlimit:4;stroke-dasharray:none;stroke-opacity:1"
       d="m 16.99091,43.801061 0.59375,1.25 16.71875,34.375 0.25,0.5 0.53125,0 71.87277,0 1.40625,0 -0.59375,-1.25 -16.249988,-34.375 -0.21875,-0.5 -0.5625,0 -72.341532,0 -1.40625,0 z m 2.8125,1.75 70.404032,0 15.374988,32.625 -69.90402,0 -15.875,-32.625 z" />
    <path
       id="path3609"
       style="fill:#000000;fill-opacity:1;fill-rule:evenodd;stroke:none;stroke-width:0.7pt;marker-start:none;marker-end:none"
       d="m 93.636482,46.501651 c -1.03411,1.63194 -3.19786,2.11714 -4.829813,1.08303 -1.63194,-1.03411 -2.11714,-3.19786 -1.08303,-4.82981 1.03411,-1.63194 3.197873,-2.11714 4.829813,-1.08303 1.63194,1.03411 2.11714,3.19787 1.08303,4.82981 z" />
    <path
       id="path3611"
       style="fill:#000000;fill-opacity:1;fill-rule:evenodd;stroke:none;stroke-width:0.7pt;marker-start:none;marker-end:none"
       d="m 105.13668,81.939681 c -1.63194,-1.03411 -2.11714,-3.19786 -1.08303,-4.82981 1.03411,-1.63194 3.19786,-2.11714 4.82981,-1.08303 1.63194,1.03411 2.11714,3.19787 1.08303,4.82981 -1.03411,1.63194 -3.19787,2.11714 -4.82981,1.08303 z" />
    <path
       id="path3613"
       style="fill:#000000;fill-opacity:1;fill-rule:evenodd;stroke:none;stroke-width:0.7pt;marker-start:none;marker-end:none"
       d="m 32.18807,77.222861 c 1.02487,-1.63776 3.18585,-2.13517 4.82361,-1.11029 1.63776,1.02488 2.13517,3.18586 1.11029,4.82362 -1.02488,1.63775 -3.18586,2.13516 -4.82361,1.11029 -1.63776,-1.02488 -2.13517,-3.18586 -1.11029,-4.82362 z" />
    <path
       id="path3615"
       style="fill:#000000;fill-opacity:1;fill-rule:evenodd;stroke:none;stroke-width:0.7pt;marker-start:none;marker-end:none"
       d="m 20.20434,41.758121 c 1.63776,1.02487 2.13517,3.18585 1.11029,4.82361 -1.02488,1.63776 -3.18586,2.13517 -4.82362,1.11029 -1.63775,-1.02488 -2.13516,-3.18586 -1.11029,-4.82361 1.02488,-1.63776 3.18586,-2.13517 4.82362,-1.11029 z" />
    <path
       id="text6151"
       d="m 8.1305224,141.41236 0.74708,-0.53595 0.51971,0.12993 -1.1937,5.14837 c -0.11911,0.5143 -0.17866,0.91491 -0.17865,1.20183 -10e-6,0.21655 0.0352,0.37354 0.10556,0.47099 0.0704,0.0974 0.18135,0.14617 0.33294,0.14616 0.1624,1e-5 0.33564,-0.0663 0.51971,-0.19895 0.18406,-0.13263 0.44391,-0.38572 0.77956,-0.75926 l 0.4628696,0.45475 c -0.4872396,0.51971 -0.9027296,0.88919 -1.2464896,1.10844 -0.34377,0.21925 -0.71596,0.32888 -1.11656,0.32888 -0.33566,0 -0.60363,-0.11098 -0.80393,-0.33294 -0.20031,-0.22196 -0.30046,-0.517 -0.30046,-0.88513 0,-0.29775 0.0622,-0.61445 0.18677,-0.9501 l -0.10556,-0.0325 c -0.51972,0.75791 -1.01236,1.31281 -1.47793,1.6647 -0.46557,0.35188 -0.95821,0.52783 -1.47792,0.52783 -0.5955,0 -1.05702,-0.22467 -1.38454,-0.674 -0.32753,-0.44933 -0.49129,-1.08002 -0.49129,-1.89207 0,-0.93114 0.18271,-1.82575 0.54813,-2.68381 0.36542,-0.85806 0.86754,-1.53476 1.50635,-2.03012 0.63881,-0.49534 1.3507,-0.74301 2.13568,-0.74302 0.35188,1e-5 0.68076,0.0393 0.98664,0.11775 0.30586,0.0785 0.62121,0.2179 0.94603,0.4182 l 0,0 z m -0.7146,2.4199 c 0.0487,-0.22196 0.0812,-0.41414 0.0974,-0.57656 0.0162,-0.1624 0.0243,-0.33834 0.0244,-0.52783 -10e-6,-0.41684 -0.0893,-0.72271 -0.26798,-0.91761 -0.17865,-0.19488 -0.48182,-0.29233 -0.90949,-0.29233 -0.55761,0 -1.05837,0.22467 -1.50229,0.67399 -0.44392,0.44934 -0.79039,1.05161 -1.03941,1.80681 -0.24903,0.7552 -0.37355,1.50905 -0.37355,2.26155 0,0.56302 0.0772,0.98393 0.23144,1.26273 0.15428,0.2788 0.41278,0.4182 0.7755,0.4182 0.3573,0 0.70783,-0.15429 1.0516,-0.46286 0.34376,-0.30858 0.69836,-0.74844 1.06378,-1.31958 0.36542,-0.57114 0.62392,-1.23025 0.77551,-1.97733 l 0.0731,-0.34918 z"
       style="font-style:normal;font-weight:normal;font-size:16.6307106px;font-family:'Bitstream Vera Sans';fill:#000000;fill-opacity:1;stroke:none;stroke-width:1px;stroke-linecap:butt;stroke-linejoin:miter;stroke-opacity:1" />
    <path
       id="text6155"
       d="m 56.046493,174.51795 -0.74708,0.52783 -0.51971,-0.12993 2.1032,-9.28169 c 0.12451,-0.55218 0.18677,-0.95279 0.18677,-1.20182 0,-0.22737 -0.069,-0.38707 -0.20707,-0.47911 -0.13805,-0.092 -0.38572,-0.14345 -0.74302,-0.15429 l 0.0975,-0.42227 2.05447,-0.0731 0.47099,0 -1.4292,5.68433 0.10557,0.0325 c 0.52512,-0.70377 1.01776,-1.21265 1.47792,-1.52665 0.46015,-0.31398 0.92031,-0.47098 1.38048,-0.47099 0.59008,1e-5 1.04889,0.22468 1.37642,0.674 0.32752,0.44934 0.49128,1.08274 0.49129,1.90019 -1e-5,0.89326 -0.18001,1.77162 -0.54002,2.63509 -0.36001,0.86348 -0.85942,1.5483 -1.49822,2.05448 -0.63881,0.50617 -1.35342,0.75926 -2.1438,0.75926 -0.72002,0 -1.35883,-0.17594 -1.91643,-0.52783 l 0,0 z m 0.7146,-2.42802 c -0.0812,0.37896 -0.12181,0.74709 -0.1218,1.10439 -1e-5,0.42768 0.0934,0.73625 0.28015,0.92573 0.18677,0.18948 0.4967,0.28422 0.9298,0.28422 0.22195,0 0.43308,-0.0365 0.63339,-0.10963 0.2003,-0.0731 0.40467,-0.19354 0.6131,-0.36136 0.20842,-0.16782 0.40601,-0.38843 0.59279,-0.66182 0.18677,-0.27339 0.35865,-0.61039 0.51565,-1.011 0.15699,-0.4006 0.2788,-0.82963 0.36542,-1.28709 0.0866,-0.45745 0.12992,-0.8946 0.12993,-1.31146 -10e-6,-0.56301 -0.0799,-0.98527 -0.23955,-1.26679 -0.15971,-0.2815 -0.41551,-0.42226 -0.76739,-0.42226 -0.25986,0 -0.51565,0.0826 -0.76738,0.24767 -0.25174,0.16512 -0.5319,0.43851 -0.84047,0.82017 -0.30858,0.38167 -0.56032,0.7728 -0.7552,1.17341 -0.1949,0.40061 -0.36001,0.9122 -0.49535,1.53476 l -0.0731,0.34106 z"
       style="font-style:normal;font-weight:normal;font-size:16.6307106px;font-family:'Bitstream Vera Sans';fill:#000000;fill-opacity:1;stroke:none;stroke-width:1px;stroke-linecap:butt;stroke-linejoin:miter;stroke-opacity:1" />
    <path
       id="text6159"
       d="m 108.84665,118.40996 c -0.0108,-0.41143 -0.0447,-0.70918 -0.10151,-0.89325 -0.0568,-0.18406 -0.14888,-0.32211 -0.27609,-0.41415 -0.12723,-0.092 -0.30723,-0.13804 -0.54001,-0.13804 -0.54679,0 -1.03807,0.2179 -1.47387,0.65369 -0.4358,0.43581 -0.79175,1.05296 -1.06784,1.85147 -0.2761,0.79852 -0.41415,1.5659 -0.41414,2.30215 0,0.55219 0.10827,0.96227 0.32482,1.23025 0.21654,0.26797 0.54136,0.40196 0.97445,0.40196 0.49264,0 0.91896,-0.0934 1.27897,-0.28016 0.36001,-0.18676 0.74031,-0.48045 1.14093,-0.88107 l 0.49535,0.49535 c -0.50889,0.56302 -1.02183,0.97446 -1.53883,1.23431 -0.51701,0.25986 -1.07326,0.38979 -1.66876,0.38979 -0.78498,0 -1.38048,-0.23279 -1.7865,-0.69836 -0.40602,-0.46558 -0.60903,-1.14228 -0.60903,-2.03012 0,-0.57925 0.10827,-1.21536 0.32482,-1.90831 0.21654,-0.69294 0.53324,-1.30197 0.95009,-1.8271 0.41685,-0.52512 0.90408,-0.9176 1.46168,-1.17747 0.55761,-0.25984 1.15311,-0.38977 1.78651,-0.38978 0.72,1e-5 1.38318,0.0812 1.98951,0.24361 l -0.3979,1.83523 -0.85265,0 z"
       style="font-style:normal;font-weight:normal;font-size:16.6307106px;font-family:'Bitstream Vera Sans';fill:#000000;fill-opacity:1;stroke:none;stroke-width:1px;stroke-linecap:butt;stroke-linejoin:miter;stroke-opacity:1" />
  </g>
  <g
     id="g4141"
     transform="translate(14.10294,0)">
    <path
       style="font-style:normal;font-weight:normal;font-size:16.6307106px;font-family:'Bitstream Vera Sans';fill:#000000;fill-opacity:1;stroke:none;stroke-width:1px;stroke-linecap:butt;stroke-linejoin:miter;stroke-opacity:1"
       d="m 30.728911,28.801826 0.74709,-0.53595 0.51971,0.129927 -1.19371,5.148374 c -0.11911,0.514299 -0.17866,0.914908 -0.17865,1.201829 -10e-6,0.216547 0.0352,0.373543 0.10556,0.470987 0.0704,0.09745 0.18135,0.146169 0.33294,0.146168 0.1624,1e-6 0.33564,-0.06632 0.51971,-0.198951 0.18406,-0.132633 0.44391,-0.385721 0.77957,-0.759263 l 0.46286,0.454746 c -0.48723,0.51971 -0.90273,0.889191 -1.24649,1.108443 -0.34377,0.219252 -0.71596,0.328879 -1.11656,0.328879 -0.33565,0 -0.60363,-0.11098 -0.80393,-0.332939 -0.20031,-0.221959 -0.30046,-0.517002 -0.30045,-0.885131 -10e-6,-0.297749 0.0623,-0.614447 0.18677,-0.950094 l -0.10557,-0.03248 c -0.51972,0.757911 -1.01236,1.312809 -1.47792,1.664695 -0.46558,0.351887 -0.95822,0.52783 -1.47793,0.52783 -0.5955,0 -1.05701,-0.224666 -1.38454,-0.673998 -0.32752,-0.449332 -0.49129,-1.08002 -0.49129,-1.892068 0,-0.931144 0.18271,-1.825747 0.54814,-2.683814 0.36541,-0.858056 0.86753,-1.534761 1.50634,-2.030116 0.63881,-0.49534 1.3507,-0.743014 2.13568,-0.743022 0.35188,8e-6 0.68076,0.03926 0.98664,0.117747 0.30587,0.07851 0.62121,0.217906 0.94603,0.418203 z m -0.7146,2.419899 c 0.0487,-0.221955 0.0812,-0.414139 0.0975,-0.576553 0.0162,-0.162404 0.0243,-0.338347 0.0244,-0.527831 0,-0.416844 -0.0893,-0.722714 -0.26797,-0.917612 -0.17866,-0.194884 -0.48182,-0.292329 -0.90949,-0.292337 -0.55761,8e-6 -1.05838,0.224674 -1.50229,0.673999 -0.44392,0.449338 -0.7904,1.051606 -1.03942,1.806803 -0.24903,0.755207 -0.37354,1.509056 -0.37354,2.261549 0,0.563021 0.0771,0.983932 0.23143,1.262733 0.15429,0.278803 0.41279,0.418204 0.77551,0.418204 0.35729,0 0.70783,-0.154288 1.0516,-0.462867 0.34376,-0.308576 0.69835,-0.748434 1.06378,-1.319575 0.36541,-0.571136 0.62391,-1.230247 0.7755,-1.977333 l 0.0731,-0.34918 z"
       id="path4135" />
    <path
       style="font-style:normal;font-weight:normal;font-size:16.6307106px;font-family:'Bitstream Vera Sans';fill:#000000;fill-opacity:1;stroke:none;stroke-width:1px;stroke-linecap:butt;stroke-linejoin:miter;stroke-opacity:1"
       d="m 37.891161,33.641623 0,-1.080022 4.10896,0 0.97445,-2.289971 -5.08341,0 0,-1.080021 5.54628,0 1.1125,-2.606669 0.98258,0 -1.1125,2.606669 3.47555,0 0,1.080021 -3.93842,0 -0.97446,2.289971 4.91288,0 0,1.080022 -5.37574,0 -1.21807,2.858403 -0.98258,0 1.21807,-2.858403 z"
       id="path4137" />
    <path
       style="font-style:normal;font-weight:normal;font-size:16.6307106px;font-family:'Bitstream Vera Sans';fill:#000000;fill-opacity:1;stroke:none;stroke-width:1px;stroke-linecap:butt;stroke-linejoin:miter;stroke-opacity:1"
       d="m 59.447492,30.352835 c -0.0108,-0.411431 -0.0447,-0.709181 -0.10151,-0.893251 -0.0568,-0.184057 -0.14888,-0.322105 -0.2761,-0.414144 -0.12722,-0.09202 -0.30723,-0.13804 -0.54001,-0.138048 -0.54678,8e-6 -1.03807,0.217907 -1.47386,0.653698 -0.4358,0.435804 -0.79175,1.052959 -1.06784,1.851466 -0.2761,0.798516 -0.41415,1.565899 -0.41415,2.302151 0,0.552194 0.10828,0.962277 0.32482,1.23025 0.21655,0.267977 0.54136,0.401964 0.97446,0.401963 0.49264,1e-6 0.91896,-0.09338 1.27897,-0.280156 0.36,-0.186769 0.74031,-0.480459 1.14093,-0.88107 l 0.49535,0.495348 c -0.50889,0.56302 -1.02184,0.974457 -1.53883,1.234311 -0.51701,0.259855 -1.07326,0.389782 -1.66876,0.389782 -0.78498,0 -1.38048,-0.232786 -1.7865,-0.69836 -0.40602,-0.465572 -0.60904,-1.142277 -0.60904,-2.030116 0,-0.579256 0.10828,-1.215359 0.32482,-1.908309 0.21655,-0.692941 0.53325,-1.301975 0.9501,-1.827104 0.41685,-0.525117 0.90407,-0.917605 1.46168,-1.177467 0.5576,-0.259848 1.1531,-0.389775 1.7865,-0.389783 0.72001,8e-6 1.38318,0.08121 1.98952,0.243614 l -0.39791,1.835225 z"
       id="path4139" />
  </g>
</svg>
