<?xml version="1.0" encoding="UTF-8" standalone="no"?>
<!-- Created with Inkscape (http://www.inkscape.org/) -->
<svg
   xmlns:dc="http://purl.org/dc/elements/1.1/"
   xmlns:cc="http://web.resource.org/cc/"
   xmlns:rdf="http://www.w3.org/1999/02/22-rdf-syntax-ns#"
   xmlns:svg="http://www.w3.org/2000/svg"
   xmlns="http://www.w3.org/2000/svg"
   xmlns:sodipodi="http://sodipodi.sourceforge.net/DTD/sodipodi-0.dtd"
   xmlns:inkscape="http://www.inkscape.org/namespaces/inkscape"
   version="1.0"
   width="107.62"
   height="157.21001"
   id="svg2379"
   sodipodi:version="0.32"
   inkscape:version="0.45pre1"
   sodipodi:docname="Orthorhombic.svg"
   inkscape:output_extension="org.inkscape.output.svg.inkscape"
   sodipodi:docbase="C:\Documents and Settings\Ed\My Documents\Wikipedia"
   sodipodi:modified="true">
  <metadata
     id="metadata8338">
    <rdf:RDF>
      <cc:Work
         rdf:about="">
        <dc:format>image/svg+xml</dc:format>
        <dc:type
           rdf:resource="http://purl.org/dc/dcmitype/StillImage" />
      </cc:Work>
    </rdf:RDF>
  </metadata>
  <sodipodi:namedview
     inkscape:window-height="573"
     inkscape:window-width="744"
     inkscape:pageshadow="2"
     inkscape:pageopacity="0.0"
     guidetolerance="10.0"
     gridtolerance="10.0"
     objecttolerance="10.0"
     borderopacity="1.0"
     bordercolor="#666666"
     pagecolor="#ffffff"
     id="base"
     inkscape:zoom="2.3980662"
     inkscape:cx="53.810001"
     inkscape:cy="78.605003"
     inkscape:window-x="22"
     inkscape:window-y="28"
     inkscape:current-layer="svg2379" />
  <defs
     id="defs2381">
    <marker
       refX="0"
       refY="0"
       orient="auto"
       style="overflow:visible"
       id="Dot_m">
      <path
         d="M -2.5,-1 C -2.5,1.76 -4.74,4 -7.5,4 C -10.26,4 -12.5,1.76 -12.5,-1 C -12.5,-3.76 -10.26,-6 -7.5,-6 C -4.74,-6 -2.5,-3.76 -2.5,-1 z "
         transform="matrix(0.4,0,0,0.4,2.96,0.4)"
         style="fill-rule:evenodd;stroke:#000000;stroke-width:1pt;marker-start:none;marker-end:none"
         id="path3527" />
    </marker>
  </defs>
  <path
     d="M 82.521602,102.91034 C 83.743972,104.40648 83.521762,106.61281 82.025612,107.83517 C 80.529472,109.05753 78.323142,108.83533 77.100782,107.33918 C 75.878422,105.84303 76.100622,103.63671 77.596772,102.41435 C 79.092922,101.19199 81.299242,101.41419 82.521602,102.91034 z "
     style="fill:#c0c0c0;fill-opacity:1;fill-rule:evenodd;stroke:none;stroke-width:0.7pt;marker-start:none;marker-end:none"
     id="path3635" />
  <path
     d="M 96.404447,139.43888 L 96.435697,139.15763 L 96.310697,138.87638 L 80.091942,104.50138 L 79.841942,104.00138 L 79.310692,104.00138 L 7.4379138,104.00138 L 6.7191638,104.00138 L 6.5629138,104.72013 L 8.1566638,105.75138 L 78.748192,105.75138 L 94.623197,139.37638 L 96.404447,139.43888 z "
     style="fill:#c0c0c0;fill-opacity:1;fill-rule:evenodd;stroke:none;stroke-width:1.75;stroke-linecap:butt;stroke-linejoin:miter;stroke-miterlimit:4;stroke-dasharray:none;stroke-opacity:1"
     id="path3637" />
  <path
     d="M 79.759517,20.854205 L 80.049922,104.40858"
     style="fill:none;fill-rule:evenodd;stroke:#c0c0c0;stroke-width:1.75;stroke-linecap:butt;stroke-linejoin:miter;stroke-miterlimit:4;stroke-dasharray:none;stroke-opacity:1"
     id="path3639" />
  <path
     d="M 7.3926238,108.52977 C 5.4747038,108.76255 3.7292038,107.3949 3.4964138,105.47698 C 3.2636338,103.55905 4.6312838,101.81355 6.5492138,101.58077 C 8.4671338,101.34799 10.212644,102.71564 10.445424,104.63356 C 10.678203,106.55149 9.3105538,108.29699 7.3926238,108.52977 z "
     style="fill:#000000;fill-rule:evenodd;stroke:none;stroke-width:0.7pt;marker-start:none;marker-end:none"
     id="path3623" />
  <path
     d="M 6.1314108,22.356815 L 6.1088338,104.95057 L 6.0775838,105.23182 L 6.2025838,105.51307 L 22.421333,139.88807 L 22.671333,140.38807 L 23.202583,140.38807 L 95.075367,140.38807 L 95.794117,140.38807 L 95.950367,139.66932 L 95.972927,57.544315 L 94.254177,57.200565 L 94.356617,138.63807 L 23.765083,138.63807 L 7.8900838,105.01307 L 7.8501608,22.700565 L 6.1314108,22.356815 z "
     style="fill:#000000;fill-opacity:1;fill-rule:evenodd;stroke:none;stroke-width:1.75;stroke-linecap:butt;stroke-linejoin:miter;stroke-miterlimit:4;stroke-dasharray:none;stroke-opacity:1"
     id="path3599" />
  <path
     d="M 26.110073,141.33733 C 25.075963,142.96927 22.912213,143.45447 21.280263,142.42036 C 19.648323,141.38625 19.163123,139.2225 20.197233,137.59055 C 21.231343,135.95861 23.395103,135.47341 25.027043,136.50752 C 26.658983,137.54163 27.144183,139.70539 26.110073,141.33733 z "
     style="fill:#000000;fill-rule:evenodd;stroke:none;stroke-width:0.7pt;marker-start:none;marker-end:none"
     id="path3625" />
  <path
     d="M 5.7914738,22.138065 L 6.3852238,23.388065 L 23.103974,57.763065 L 23.353974,58.263065 L 23.885224,58.263065 L 95.757997,58.263065 L 97.164247,58.263065 L 96.570497,57.013065 L 80.320506,22.638065 L 80.101756,22.138065 L 79.539256,22.138065 L 7.1977238,22.138065 L 5.7914738,22.138065 z M 8.6039738,23.888065 L 79.008006,23.888065 L 94.382997,56.513065 L 24.478974,56.513065 L 8.6039738,23.888065 z "
     style="fill:#000000;fill-opacity:1;fill-rule:evenodd;stroke:none;stroke-width:1.75;stroke-linecap:butt;stroke-linejoin:miter;stroke-miterlimit:4;stroke-dasharray:none;stroke-opacity:1"
     id="path2430" />
  <path
     d="M 97.745907,137.33128 C 98.968277,138.82742 98.746067,141.03375 97.249917,142.25611 C 95.753777,143.47847 93.547447,143.25627 92.325087,141.76012 C 91.102722,140.26397 91.324927,138.05765 92.821077,136.83529 C 94.317227,135.61293 96.523547,135.83513 97.745907,137.33128 z "
     style="fill:#000000;fill-rule:evenodd;stroke:none;stroke-width:0.7pt;marker-start:none;marker-end:none"
     id="path3627" />
  <path
     d="M 93.162517,60.276685 C 91.530577,59.242575 91.045372,57.078825 92.079487,55.446875 C 93.113597,53.814935 95.277347,53.329735 96.909297,54.363845 C 98.541237,55.397955 99.026437,57.561715 97.992327,59.193655 C 96.958217,60.825595 94.794457,61.310795 93.162517,60.276685 z "
     style="fill:#000000;fill-opacity:1;fill-rule:evenodd;stroke:none;stroke-width:0.7pt;marker-start:none;marker-end:none"
     id="path3611" />
  <path
     d="M 20.186726,55.559865 C 21.211596,53.922105 23.372576,53.424695 25.010336,54.449575 C 26.648096,55.474455 27.145506,57.635435 26.120626,59.273195 C 25.095746,60.910945 22.934766,61.408355 21.297016,60.383485 C 19.659256,59.358605 19.161846,57.197625 20.186726,55.559865 z "
     style="fill:#000000;fill-opacity:1;fill-rule:evenodd;stroke:none;stroke-width:0.7pt;marker-start:none;marker-end:none"
     id="path3613" />
  <path
     d="M 82.768025,24.838655 C 81.733915,26.470595 79.570165,26.955795 77.938212,25.921685 C 76.306272,24.887575 75.821072,22.723825 76.855182,21.091875 C 77.889292,19.459935 80.053055,18.974735 81.684995,20.008845 C 83.316935,21.042955 83.802135,23.206715 82.768025,24.838655 z "
     style="fill:#000000;fill-opacity:1;fill-rule:evenodd;stroke:none;stroke-width:0.7pt;marker-start:none;marker-end:none"
     id="path3609" />
  <path
     d="M 8.8272928,20.095125 C 10.465053,21.119995 10.962463,23.280975 9.9375828,24.918735 C 8.9127028,26.556495 6.7517228,27.053905 5.1139628,26.029025 C 3.4762128,25.004145 2.9788028,22.843165 4.0036728,21.205415 C 5.0285528,19.567655 7.1895328,19.070245 8.8272928,20.095125 z "
     style="fill:#000000;fill-opacity:1;fill-rule:evenodd;stroke:none;stroke-width:0.7pt;marker-start:none;marker-end:none"
     id="path3615" />
  <path
     d="M 23.283068,57.589372 L 23.573473,141.14374"
     style="fill:none;fill-rule:evenodd;stroke:#000000;stroke-width:1.75;stroke-linecap:butt;stroke-linejoin:miter;stroke-miterlimit:4;stroke-dasharray:none;stroke-opacity:1"
     id="path6134" />
  <path
     style="font-size:16.6307106px;font-style:normal;font-weight:normal;fill:#000000;fill-opacity:1;stroke:none;stroke-width:1px;stroke-linecap:butt;stroke-linejoin:miter;stroke-opacity:1;font-family:Bitstream Vera Sans"
     d="M 9.1218715,118.77982 L 9.8689542,118.24387 L 10.388664,118.3738 L 9.1949557,123.52217 C 9.0758486,124.03647 9.0162986,124.43708 9.0163055,124.724 C 9.0162986,124.94055 9.0514873,125.09754 9.1218715,125.19499 C 9.1922418,125.29243 9.3032214,125.34116 9.4548106,125.34115 C 9.6172124,125.34116 9.7904488,125.27484 9.9745203,125.1422 C 10.158576,125.00957 10.418431,124.75648 10.754085,124.38294 L 11.216951,124.83769 C 10.729715,125.3574 10.314218,125.72688 9.97046,125.94613 C 9.6266862,126.16538 9.2544987,126.27501 8.8538962,126.27501 C 8.518244,126.27501 8.2502689,126.16403 8.0499703,125.94207 C 7.8496598,125.72011 7.7495075,125.42507 7.7495131,125.05694 C 7.7495075,124.75919 7.8117643,124.44249 7.9362838,124.10684 L 7.8307177,124.07436 C 7.3110029,124.83227 6.8183619,125.38717 6.3527933,125.73906 C 5.8872162,126.09094 5.3945752,126.26689 4.8748688,126.26689 C 4.2793659,126.26689 3.8178534,126.04222 3.4903296,125.59289 C 3.1628032,125.14356 2.9990407,124.51287 2.9990416,123.70082 C 2.9990407,122.76968 3.181751,121.87507 3.5471729,121.01701 C 3.912592,120.15895 4.4147069,119.48225 5.053519,118.98689 C 5.6923253,118.49155 6.4042186,118.24388 7.1892011,118.24387 C 7.5410825,118.24388 7.8699609,118.28313 8.1758375,118.36162 C 8.4817019,118.44012 8.7970463,118.57952 9.1218715,118.77982 L 9.1218715,118.77982 z M 8.4072707,121.19972 C 8.4559872,120.97776 8.488469,120.78558 8.5047163,120.62316 C 8.5209508,120.46076 8.5290713,120.28482 8.5290777,120.09533 C 8.5290713,119.67849 8.4397463,119.37262 8.2611023,119.17772 C 8.0824462,118.98284 7.7792825,118.88539 7.3516103,118.88539 C 6.7940005,118.88539 6.293239,119.11006 5.8493245,119.55938 C 5.4054025,120.00872 5.0589297,120.61099 4.8099051,121.36619 C 4.5608751,122.12139 4.4363614,122.87524 4.4363637,123.62774 C 4.4363614,124.19076 4.5135058,124.61167 4.6677969,124.89047 C 4.8220831,125.16927 5.0805843,125.30867 5.4433013,125.30867 C 5.800598,125.30867 6.1511311,125.15438 6.4949014,124.84581 C 6.838663,124.53723 7.1932563,124.09737 7.5586822,123.52623 C 7.9240973,122.95509 8.1825985,122.29598 8.3341865,121.5489 L 8.4072707,121.19972 z "
     id="text6151" />
  <path
     style="font-size:16.6307106px;font-style:normal;font-weight:normal;fill:#000000;fill-opacity:1;stroke:none;stroke-width:1px;stroke-linecap:butt;stroke-linejoin:miter;stroke-opacity:1;font-family:Bitstream Vera Sans"
     d="M 56.678533,153.68196 L 55.93145,154.20979 L 55.41174,154.07986 L 57.514941,144.79817 C 57.639451,144.24599 57.701708,143.84538 57.701711,143.59635 C 57.701708,143.36898 57.632684,143.20928 57.494639,143.11724 C 57.356589,143.02522 57.108915,142.97379 56.751617,142.96295 L 56.849062,142.54068 L 58.90354,142.4676 L 59.374527,142.4676 L 57.945325,148.15193 L 58.050891,148.18441 C 58.576011,147.48064 59.068652,146.97176 59.528816,146.65776 C 59.98897,146.34378 60.449129,146.18678 60.909295,146.18677 C 61.499375,146.18678 61.958181,146.41145 62.285713,146.86077 C 62.613231,147.31011 62.776993,147.94351 62.777001,148.76096 C 62.776993,149.65422 62.59699,150.53258 62.23699,151.39605 C 61.876976,152.25953 61.377568,152.94435 60.738765,153.45053 C 60.09995,153.9567 59.385349,154.20979 58.594962,154.20979 C 57.874945,154.20979 57.236135,154.03385 56.678533,153.68196 L 56.678533,153.68196 z M 57.393134,151.25394 C 57.311926,151.6329 57.271324,152.00103 57.271327,152.35833 C 57.271324,152.78601 57.364709,153.09458 57.551483,153.28406 C 57.73825,153.47354 58.048181,153.56828 58.481276,153.56828 C 58.703231,153.56828 58.914363,153.53173 59.114672,153.45865 C 59.314972,153.38557 59.519337,153.26511 59.727767,153.09729 C 59.936187,152.92947 60.133785,152.70886 60.320561,152.43547 C 60.507326,152.16208 60.679209,151.82508 60.83621,151.42447 C 60.9932,151.02387 61.115007,150.59484 61.201631,150.13738 C 61.288243,149.67993 61.331552,149.24278 61.331559,148.82592 C 61.331552,148.26291 61.251701,147.84065 61.092005,147.55913 C 60.932296,147.27763 60.676502,147.13687 60.324621,147.13687 C 60.064761,147.13687 59.808966,147.21943 59.557237,147.38454 C 59.305498,147.54966 59.025342,147.82305 58.716769,148.20471 C 58.408188,148.58638 58.156454,148.97751 57.961566,149.37812 C 57.766672,149.77873 57.601556,150.29032 57.466218,150.91288 L 57.393134,151.25394 z "
     id="text6155" />
  <path
     style="font-size:16.6307106px;font-style:normal;font-weight:normal;fill:#000000;fill-opacity:1;stroke:none;stroke-width:1px;stroke-linecap:butt;stroke-linejoin:miter;stroke-opacity:1;font-family:Bitstream Vera Sans"
     d="M 103.37041,96.496035 C 103.35958,96.084605 103.32574,95.786854 103.2689,95.602784 C 103.21205,95.418727 103.12002,95.280679 102.99281,95.18864 C 102.86558,95.096616 102.68558,95.0506 102.4528,95.050593 C 101.90601,95.0506 101.41473,95.268499 100.97893,95.70429 C 100.54313,96.140094 100.18718,96.757249 99.911091,97.555756 C 99.634993,98.354272 99.496945,99.121655 99.496947,99.857907 C 99.496945,100.4101 99.605218,100.82018 99.821766,101.08816 C 100.03831,101.35613 100.36313,101.49012 100.79622,101.49012 C 101.28886,101.49012 101.71518,101.39674 102.07519,101.20996 C 102.4352,101.0232 102.8155,100.72951 103.21612,100.32889 L 103.71147,100.82424 C 103.20258,101.38726 102.68964,101.7987 102.17264,102.05855 C 101.65563,102.31841 101.09938,102.44834 100.50388,102.44834 C 99.718904,102.44834 99.123404,102.21555 98.717383,101.74998 C 98.311358,101.2844 98.108347,100.6077 98.108348,99.719859 C 98.108347,99.140603 98.21662,98.5045 98.433166,97.81155 C 98.649711,97.118609 98.966409,96.509575 99.383261,95.984446 C 99.800109,95.459329 100.28734,95.066841 100.84494,94.806979 C 101.40255,94.547132 101.99805,94.417204 102.63145,94.417196 C 103.35145,94.417204 104.01463,94.498409 104.62096,94.66081 L 104.22306,96.496035 L 103.37041,96.496035 z "
     id="text6159" />
  <path
     style="font-size:16.6307106px;font-style:normal;font-weight:normal;fill:#000000;fill-opacity:1;stroke:none;stroke-width:1px;stroke-linecap:butt;stroke-linejoin:miter;stroke-opacity:1;font-family:Bitstream Vera Sans"
     d="M 27.783914,7.2472154 L 28.530997,6.7112647 L 29.050707,6.8411921 L 27.856998,11.989566 C 27.737891,12.503865 27.678341,12.904474 27.678348,13.191395 C 27.678341,13.407942 27.71353,13.564938 27.783914,13.662382 C 27.854284,13.759828 27.965264,13.808551 28.116853,13.80855 C 28.279255,13.808551 28.452491,13.742234 28.636563,13.609599 C 28.820619,13.476966 29.080473,13.223878 29.416127,12.850336 L 29.878994,13.305082 C 29.391757,13.824792 28.976261,14.194273 28.632503,14.413525 C 28.288729,14.632777 27.916541,14.742404 27.515939,14.742404 C 27.180287,14.742404 26.912312,14.631424 26.712013,14.409465 C 26.511702,14.187506 26.41155,13.892463 26.411556,13.524334 C 26.41155,13.226585 26.473807,12.909887 26.598326,12.57424 L 26.49276,12.541758 C 25.973045,13.299669 25.480404,13.854567 25.014836,14.206453 C 24.549259,14.55834 24.056618,14.734283 23.536911,14.734283 C 22.941409,14.734283 22.479896,14.509617 22.152372,14.060285 C 21.824846,13.610953 21.661083,12.980265 21.661084,12.168217 C 21.661083,11.237073 21.843794,10.34247 22.209216,9.4844032 C 22.574635,8.6263468 23.076749,7.9496422 23.715562,7.4542872 C 24.354368,6.9589465 25.066261,6.7112726 25.851244,6.7112647 C 26.203125,6.7112726 26.532004,6.7505215 26.83788,6.8290115 C 27.143745,6.907517 27.459089,7.0469181 27.783914,7.2472154 L 27.783914,7.2472154 z M 27.069313,9.6671137 C 27.11803,9.4451595 27.150512,9.2529754 27.166759,9.0905607 C 27.182993,8.9281571 27.191114,8.7522139 27.19112,8.5627305 C 27.191114,8.1458865 27.101789,7.840016 26.923145,7.6451181 C 26.744489,7.4502341 26.441325,7.3527886 26.013653,7.3527814 C 25.456043,7.3527886 24.955282,7.5774546 24.511367,8.0267799 C 24.067445,8.4761184 23.720972,9.0783856 23.471948,9.8335832 C 23.222918,10.58879 23.098404,11.342639 23.098406,12.095132 C 23.098404,12.658153 23.175548,13.079064 23.32984,13.357865 C 23.484126,13.636668 23.742627,13.776069 24.105344,13.776069 C 24.462641,13.776069 24.813174,13.621781 25.156944,13.313202 C 25.500706,13.004626 25.855299,12.564768 26.220725,11.993627 C 26.58614,11.422491 26.844641,10.76338 26.996229,10.016294 L 27.069313,9.6671137 z M 34.946163,12.087012 L 34.946163,11.00699 L 39.055118,11.00699 L 40.029573,8.7170194 L 34.946163,8.7170194 L 34.946163,7.6369976 L 40.49244,7.6369976 L 41.604943,5.0303286 L 42.58752,5.0303286 L 41.475016,7.6369976 L 44.950575,7.6369976 L 44.950575,8.7170194 L 41.01215,8.7170194 L 40.037694,11.00699 L 44.950575,11.00699 L 44.950575,12.087012 L 39.574827,12.087012 L 38.356758,14.945415 L 37.374182,14.945415 L 38.592251,12.087012 L 34.946163,12.087012 z M 51.861091,14.214574 L 51.114008,14.742404 L 50.594298,14.612476 L 52.697499,5.3307858 C 52.822009,4.7786041 52.884266,4.3779949 52.884269,4.1289571 C 52.884266,3.9015948 52.815242,3.7418925 52.677197,3.6498497 C 52.539147,3.5578289 52.291473,3.5063993 51.934175,3.4955609 L 52.031621,3.0732968 L 54.086098,3.0002126 L 54.557085,3.0002126 L 53.127883,8.6845375 L 53.233449,8.7170194 C 53.758569,8.0132524 54.25121,7.5043705 54.711374,7.1903721 C 55.171528,6.8763886 55.631687,6.7193931 56.091853,6.7193852 C 56.681933,6.7193931 57.140739,6.944059 57.468271,7.3933837 C 57.795789,7.8427228 57.959551,8.4761184 57.959559,9.2935723 C 57.959551,10.186828 57.779548,11.06519 57.419548,11.928663 C 57.059534,12.792141 56.560126,13.476966 55.921323,13.98314 C 55.282508,14.489316 54.567907,14.742404 53.77752,14.742404 C 53.057503,14.742404 52.418693,14.56646 51.861091,14.214574 L 51.861091,14.214574 z M 52.575692,11.786555 C 52.494484,12.165512 52.453882,12.53364 52.453885,12.890938 C 52.453882,13.318617 52.547267,13.627194 52.734041,13.816671 C 52.920808,14.006149 53.230739,14.100888 53.663834,14.100887 C 53.885789,14.100888 54.096921,14.064346 54.29723,13.991261 C 54.49753,13.918177 54.701895,13.797724 54.910325,13.6299 C 55.118745,13.462078 55.316343,13.241473 55.503119,12.968082 C 55.689884,12.694695 55.861767,12.357696 56.018768,11.957085 C 56.175758,11.556478 56.297565,11.127447 56.384189,10.669991 C 56.470801,10.212543 56.51411,9.7753914 56.514117,9.358536 C 56.51411,8.795523 56.434259,8.3732593 56.274563,8.0917436 C 56.114854,7.810241 55.85906,7.6694864 55.507179,7.6694795 C 55.247319,7.6694864 54.991525,7.7520444 54.739795,7.9171536 C 54.488056,8.0822763 54.207901,8.355665 53.899327,8.7373205 C 53.590746,9.1189878 53.339012,9.5101231 53.144124,9.9107276 C 52.94923,10.311341 52.784114,10.82293 52.648776,11.445495 L 52.575692,11.786555 z M 63.692606,12.087012 L 63.692606,11.00699 L 67.801561,11.00699 L 68.776016,8.7170194 L 63.692606,8.7170194 L 63.692606,7.6369976 L 69.238883,7.6369976 L 70.351386,5.0303286 L 71.333962,5.0303286 L 70.221459,7.6369976 L 73.697017,7.6369976 L 73.697017,8.7170194 L 69.758592,8.7170194 L 68.784137,11.00699 L 73.697017,11.00699 L 73.697017,12.087012 L 68.32127,12.087012 L 67.103201,14.945415 L 66.120624,14.945415 L 67.338694,12.087012 L 63.692606,12.087012 z M 84.708366,8.798224 C 84.697533,8.3867934 84.663697,8.0890433 84.60686,7.904973 C 84.550011,7.720916 84.457979,7.5828682 84.330764,7.4908293 C 84.203538,7.3988046 84.023535,7.3527886 83.790754,7.3527814 C 83.243971,7.3527886 82.752683,7.5706876 82.316889,8.0064788 C 81.881088,8.4422832 81.525141,9.0594378 81.249048,9.8579446 C 80.97295,10.656461 80.834902,11.423844 80.834905,12.160096 C 80.834902,12.71229 80.943175,13.122373 81.159723,13.390346 C 81.376266,13.658323 81.701084,13.79231 82.134179,13.792309 C 82.626816,13.79231 83.05314,13.698925 83.413152,13.512153 C 83.773154,13.325384 84.153462,13.031694 84.554077,12.631083 L 85.049426,13.126431 C 84.540537,13.689451 84.027595,14.100888 83.510598,14.360742 C 82.99359,14.620597 82.437339,14.750524 81.841842,14.750524 C 81.056862,14.750524 80.461361,14.517738 80.05534,14.052164 C 79.649316,13.586592 79.446304,12.909887 79.446305,12.022048 C 79.446304,11.442792 79.554577,10.806689 79.771124,10.113739 C 79.987668,9.4207981 80.304366,8.8117639 80.721218,8.2866348 C 81.138066,7.7615183 81.625293,7.3690296 82.182902,7.1091675 C 82.740503,6.8493204 83.336003,6.7193931 83.969404,6.7193852 C 84.689412,6.7193931 85.352583,6.8005976 85.958918,6.9629991 L 85.561015,8.798224 L 84.708366,8.798224 z "
     id="text6200" />
</svg>
